<?xml version="1.0" encoding="utf-8"?>
<!-- Generator: Adobe Illustrator 19.0.0, SVG Export Plug-In . SVG Version: 6.00 Build 0)  -->
<svg version="1.0" xmlns="http://www.w3.org/2000/svg" xmlns:xlink="http://www.w3.org/1999/xlink" x="0px" y="0px"
	 viewBox="0 0 200 200" enable-background="new 0 0 200 200" xml:space="preserve">
<g id="Layer_1">
</g>
<g id="Light">
	<g id="XMLID_1_">
		<path id="XMLID_3_" fill="#2E2E2E" d="M179.69,0H20.31C9.09,0,0,9.09,0,20.31v159.38C0,190.91,9.09,200,20.31,200h39.06V77.54
			c0-25.54,20.03-47.13,45.56-47.83c26.49-0.73,48.19,20.53,48.19,46.86c0,25.89-20.99,46.88-46.88,46.88v16.85
			c0,4.24-0.39,8.48-1.27,12.63c-4.04,18.87-14.19,32.67-35.05,47.08h56.64c11.22,0,20.31-9.09,20.31-20.31v-15.63
			c0-11.22,9.09-20.31,20.31-20.31h12.5c11.22,0,20.31-9.09,20.31-20.31V20.31C200,9.09,190.91,0,179.69,0z"/>
		<path id="XMLID_7_" fill="#FF7C00" d="M106.25,76.56h51.56c0-25.89-24.41-47.85-51.56-46.88V76.56z"/>
		<g id="XMLID_11_">
			<path id="XMLID_32_" fill="#2E2E2E" d="M93.43,40.38c-4.77,0-8.65,3.88-8.65,8.65c0,4.77,3.88,8.65,8.65,8.65
				c4.77,0,8.65-3.88,8.65-8.65C102.07,44.26,98.19,40.38,93.43,40.38z M93.43,54.55c-3.05,0-5.52-2.47-5.52-5.52
				s2.47-5.52,5.52-5.52c0.56,0,1.1,0.11,1.61,0.27c-1.65,0.11-2.96,1.48-2.96,3.16c0,1.76,1.42,3.18,3.18,3.18
				c1.76,0,3.18-1.42,3.18-3.18c0-0.08-0.02-0.16-0.02-0.24c0.33,0.71,0.53,1.5,0.53,2.33C98.95,52.07,96.48,54.55,93.43,54.55z"/>
		</g>
	</g>
</g>
</svg>
